<svg xmlns="http://www.w3.org/2000/svg">  <symbol id="icon-rocket" viewBox="0 0 24 24">
    <path d="M12 15v5s3.03-.55 4-2c1.08-1.62 0-5 0-5" />
    <path d="M4.5 16.5c-1.5 1.26-2 5-2 5s3.74-.5 5-2c.71-.84.7-2.13-.09-2.91a2.18 2.18 0 0 0-2.91-.09" />
    <path d="M9 12a22 22 0 0 1 2-3.95A12.88 12.88 0 0 1 22 2c0 2.72-.78 7.5-6 11a22.4 22.4 0 0 1-4 2z" />
    <path d="M9 12H4s.55-3.03 2-4c1.62-1.08 5 .05 5 .05" />
  </symbol>
  <symbol id="icon-layout-dashboard" viewBox="0 0 24 24">
    <rect width="7" height="9" x="3" y="3" rx="1" />
    <rect width="7" height="5" x="14" y="3" rx="1" />
    <rect width="7" height="9" x="14" y="12" rx="1" />
    <rect width="7" height="5" x="3" y="16" rx="1" />
  </symbol>
  <symbol id="icon-list" viewBox="0 0 24 24">
    <path d="M3 5h.01" />
    <path d="M3 12h.01" />
    <path d="M3 19h.01" />
    <path d="M8 5h13" />
    <path d="M8 12h13" />
    <path d="M8 19h13" />
  </symbol>
  <symbol id="icon-folder-kanban" viewBox="0 0 24 24">
    <path d="M4 20h16a2 2 0 0 0 2-2V8a2 2 0 0 0-2-2h-7.93a2 2 0 0 1-1.66-.9l-.82-1.2A2 2 0 0 0 7.93 3H4a2 2 0 0 0-2 2v13c0 1.1.9 2 2 2Z" />
    <path d="M8 10v4" />
    <path d="M12 10v2" />
    <path d="M16 10v6" />
  </symbol>
  <symbol id="icon-circle-dollar-sign" viewBox="0 0 24 24">
    <circle cx="12" cy="12" r="10" />
    <path d="M16 8h-6a2 2 0 1 0 0 4h4a2 2 0 1 1 0 4H8" />
    <path d="M12 18V6" />
  </symbol>
  <symbol id="icon-app-window" viewBox="0 0 24 24">
    <rect x="2" y="4" width="20" height="16" rx="2" />
    <path d="M10 4v4" />
    <path d="M2 8h20" />
    <path d="M6 4v4" />
  </symbol>
  <symbol id="icon-bar-chart-3" viewBox="0 0 24 24">
    <path d="M3 3v16a2 2 0 0 0 2 2h16" />
    <path d="M18 17V9" />
    <path d="M13 17V5" />
    <path d="M8 17v-3" />
  </symbol>
  <symbol id="icon-brain" viewBox="0 0 24 24">
    <path d="M12 18V5" />
    <path d="M15 13a4.17 4.17 0 0 1-3-4 4.17 4.17 0 0 1-3 4" />
    <path d="M17.598 6.5A3 3 0 1 0 12 5a3 3 0 1 0-5.598 1.5" />
    <path d="M17.997 5.125a4 4 0 0 1 2.526 5.77" />
    <path d="M18 18a4 4 0 0 0 2-7.464" />
    <path d="M19.967 17.483A4 4 0 1 1 12 18a4 4 0 1 1-7.967-.517" />
    <path d="M6 18a4 4 0 0 1-2-7.464" />
    <path d="M6.003 5.125a4 4 0 0 0-2.526 5.77" />
  </symbol>
  <symbol id="icon-import" viewBox="0 0 24 24">
    <path d="M12 3v12" />
    <path d="m8 11 4 4 4-4" />
    <path d="M8 5H4a2 2 0 0 0-2 2v10a2 2 0 0 0 2 2h16a2 2 0 0 0 2-2V7a2 2 0 0 0-2-2h-4" />
  </symbol>
  <symbol id="icon-cpu" viewBox="0 0 24 24">
    <path d="M12 20v2" />
    <path d="M12 2v2" />
    <path d="M17 20v2" />
    <path d="M17 2v2" />
    <path d="M2 12h2" />
    <path d="M2 17h2" />
    <path d="M2 7h2" />
    <path d="M20 12h2" />
    <path d="M20 17h2" />
    <path d="M20 7h2" />
    <path d="M7 20v2" />
    <path d="M7 2v2" />
    <rect x="4" y="4" width="16" height="16" rx="2" />
    <rect x="8" y="8" width="8" height="8" rx="1" />
  </symbol>
  <symbol id="icon-activity" viewBox="0 0 24 24">
    <path d="M22 12h-2.48a2 2 0 0 0-1.93 1.46l-2.35 8.36a.25.25 0 0 1-.48 0L9.24 2.18a.25.25 0 0 0-.48 0l-2.35 8.36A2 2 0 0 1 4.49 12H2" />
  </symbol>
  <symbol id="icon-settings" viewBox="0 0 24 24">
    <path d="M9.671 4.136a2.34 2.34 0 0 1 4.659 0 2.34 2.34 0 0 0 3.319 1.915 2.34 2.34 0 0 1 2.33 4.033 2.34 2.34 0 0 0 0 3.831 2.34 2.34 0 0 1-2.33 4.033 2.34 2.34 0 0 0-3.319 1.915 2.34 2.34 0 0 1-4.659 0 2.34 2.34 0 0 0-3.32-1.915 2.34 2.34 0 0 1-2.33-4.033 2.34 2.34 0 0 0 0-3.831A2.34 2.34 0 0 1 6.35 6.051a2.34 2.34 0 0 0 3.319-1.915" />
    <circle cx="12" cy="12" r="3" />
  </symbol>
  <symbol id="icon-info" viewBox="0 0 24 24">
    <circle cx="12" cy="12" r="10" />
    <path d="M12 16v-4" />
    <path d="M12 8h.01" />
  </symbol>
  <symbol id="icon-chevron-right" viewBox="0 0 24 24">
    <path d="m9 18 6-6-6-6" />
  </symbol>
  <symbol id="icon-arrow-right" viewBox="0 0 24 24">
    <path d="M5 12h14" />
    <path d="m12 5 7 7-7 7" />
  </symbol>
  <symbol id="icon-monitor" viewBox="0 0 24 24">
    <rect width="20" height="14" x="2" y="3" rx="2" />
    <line x1="8" x2="16" y1="21" y2="21" />
    <line x1="12" x2="12" y1="17" y2="21" />
  </symbol>
  <symbol id="icon-mouse-pointer-2" viewBox="0 0 24 24">
    <path d="M4.037 4.688a.495.495 0 0 1 .651-.651l16 6.5a.5.5 0 0 1-.063.947l-6.124 1.58a2 2 0 0 0-1.438 1.435l-1.579 6.126a.5.5 0 0 1-.947.063z" />
  </symbol>
  <symbol id="icon-chevron-left" viewBox="0 0 24 24">
    <path d="m15 18-6-6 6-6" />
  </symbol>
</svg>

